# xmcd CD database file
#
# Track frame offsets:
#	150
#	8203
#	26787
#	43704
#	55009
#	60466
#	71812
#	84075
#	96977
#	119451
#	138408
#	146261
#	170933
#	187283
#	199636
#	215428
#	227112
#	235577
#	245772
#
# Disc length: 4421 seconds
#
# Revision: 3
# Processed by: cddbd v1.5.2PL0 Copyright (c) Steve Scherf et al.
# Submitted via: CDex 1.51
#
DISCID=15114313
DTITLE=Chopin - Mazurkas - Vol.2  (Cor de Groot, piano)
DYEAR=1988
DGENRE=Classique
TTITLE0=Mazurka Op 33 - N°3  in C major  (Cor de Groot, piano Pleyel 1847)
TTITLE1=Mazurka Op 33 - N°4  in B minor
TTITLE2=Mazurka Op 41 - N°1  in C sharp minor
TTITLE3=Mazurka Op 41 - N°2  in E minor
TTITLE4=Mazurka Op 41 - N°3  in B major
TTITLE5=Mazurka Op 41 - N°4 in A flat major
TTITLE6=Mazurka Op 50 - N°1  in G major
TTITLE7=Mazurka Op 50 - N°2  in A flat major
TTITLE8=Mazurka Op 50 - N°3  in C sharp minor
TTITLE9=Mazurka Op 56 - N°1  in B major
TTITLE10=Mazurka Op 56 - N°2  in C major
TTITLE11=Mazurka Op 56 - N°3  in C minor
TTITLE12=Mazurka Op 59 - N°1  in A minor
TTITLE13=Mazurka Op 59 - N°2  in A flat major
TTITLE14=Mazurka Op 59 - N°3  in F sharp minor
TTITLE15=Mazurka Op 63 - N°1  in B major
TTITLE16=Mazurka Op 63 - N°2  in F minor
TTITLE17=Mazurka Op 63 - N°3  in C sharp minor
TTITLE18=Variations on 'La ci darem la Mano' from Mozart's Don Giovanni, in B flat major Op. 2 (Dimiter Manolov, piano)
EXTD=Brilliant Classics 93202 YEAR: 1988
EXTT0=
EXTT1=
EXTT2=
EXTT3=
EXTT4=
EXTT5=
EXTT6=
EXTT7=
EXTT8=
EXTT9=
EXTT10=
EXTT11=
EXTT12=
EXTT13=
EXTT14=
EXTT15=
EXTT16=
EXTT17=
EXTT18=
PLAYORDER=
